<?xml version="1.0" standalone="no"?>
<!DOCTYPE svg PUBLIC "-//W3C//DTD SVG 20010904//EN"
 "http://www.w3.org/TR/2001/REC-SVG-20010904/DTD/svg10.dtd">
<svg version="1.0" xmlns="http://www.w3.org/2000/svg"
 width="500.000000pt" height="500.000000pt" viewBox="0 0 500.000000 500.000000"
 preserveAspectRatio="xMidYMid meet">

<g transform="translate(0.000000,500.000000) scale(0.100000,-0.100000)"
fill="#fff" stroke="none">
<path d="M2450 4254 c-119 -80 -159 -195 -160 -455 0 -131 13 -245 30 -263 13
-13 112 -45 140 -46 39 0 172 45 215 73 67 42 155 148 155 185 0 12 -5 21 -11
20 -6 -2 -13 3 -14 10 -2 7 -1 8 2 2 8 -17 46 29 83 100 39 77 49 91 143 193
39 44 89 88 110 99 22 11 37 21 35 23 -7 7 -155 -15 -197 -29 -24 -9 -51 -16
-60 -16 -29 -1 -181 -68 -219 -98 -53 -42 -76 -47 -100 -22 -23 25 -113 206
-109 221 4 19 -17 20 -43 3z"/>
<path d="M3364 4213 c-24 -37 -38 -48 -109 -83 -91 -44 -215 -167 -269 -265
-24 -44 -46 -91 -50 -105 -25 -87 -89 -203 -143 -258 -60 -60 -122 -91 -264
-132 -52 -15 -109 -35 -127 -44 -36 -19 -62 -9 -83 31 -15 28 -25 26 -47 -9
-14 -24 -14 -30 -2 -54 8 -15 32 -38 52 -51 21 -13 38 -28 38 -33 0 -6 14 -29
30 -52 43 -59 39 -78 -31 -154 -49 -53 -60 -70 -54 -87 20 -64 18 -78 -16
-113 l-33 -34 13 -50 c17 -67 9 -94 -49 -160 -96 -112 -107 -149 -64 -212 29
-42 78 -75 204 -139 47 -23 110 -60 140 -81 58 -39 260 -247 325 -333 107
-141 494 -545 523 -545 16 0 15 15 -1 48 -10 21 -12 78 -6 262 3 129 4 241 2
248 -21 55 -36 -84 -32 -302 l3 -151 -27 -3 c-22 -3 -49 19 -174 145 -82 81
-186 198 -232 258 -47 61 -97 124 -112 140 -66 70 -109 131 -107 150 2 14 21
26 67 42 83 30 167 24 261 -18 124 -55 207 -70 420 -76 211 -6 452 9 505 31
17 8 56 17 84 21 167 23 328 167 394 354 30 82 31 93 30 233 -1 167 -14 222
-65 279 -53 59 -91 74 -183 73 -69 0 -89 -5 -146 -32 -36 -18 -71 -32 -77 -32
-7 0 -12 -3 -12 -8 0 -4 -15 -15 -33 -25 -39 -21 -137 -118 -205 -202 -60 -75
-175 -249 -195 -295 -9 -19 -27 -54 -41 -77 -15 -23 -23 -44 -18 -47 20 -12
60 24 92 86 63 121 79 146 155 247 102 135 236 259 339 313 74 38 88 42 157
42 68 1 79 -2 113 -28 22 -16 48 -50 62 -80 21 -46 24 -65 24 -189 0 -170 -13
-215 -114 -402 -63 -115 -241 -193 -446 -197 -34 0 -68 6 -87 16 -18 9 -70 30
-116 46 -81 30 -280 126 -342 165 -213 137 -462 352 -622 540 -29 33 -62 71
-74 85 -114 131 -199 266 -199 316 0 61 28 84 145 119 124 37 179 58 235 91
65 38 137 114 146 153 4 14 12 35 19 46 6 11 19 43 29 70 45 136 157 281 281
364 l76 50 116 -6 117 -6 70 -48 c38 -27 73 -46 78 -43 12 8 10 24 -4 24 -13
0 -39 20 -117 90 -24 22 -53 40 -64 40 -28 0 -107 39 -114 56 -8 21 -19 17
-39 -13z m-881 -1225 c30 -47 293 -335 362 -398 27 -25 73 -68 102 -96 l53
-52 0 -65 c0 -36 -5 -69 -10 -72 -14 -9 -50 -81 -50 -100 0 -25 19 -18 73 29
49 40 57 44 126 49 80 7 85 5 183 -60 43 -29 63 -77 54 -128 -8 -43 -48 -76
-84 -70 -15 3 -69 12 -120 20 -103 17 -176 49 -231 101 -20 18 -55 50 -78 69
l-42 36 -27 -43 c-37 -58 -47 -67 -112 -98 -65 -32 -75 -30 -155 28 -50 38
-230 142 -243 142 -17 0 -95 74 -100 95 -8 31 15 76 81 159 61 76 72 104 56
134 -20 38 -12 65 31 109 42 43 42 43 21 58 -47 33 -37 98 21 144 46 37 68 39
89 9z m1145 -902 c53 -27 66 -49 35 -61 -24 -8 -202 -17 -224 -10 -28 9 -29
52 -2 81 22 24 29 26 82 21 33 -3 79 -16 109 -31z"/>
<path d="M2197 4222 c-9 -2 -15 -8 -12 -13 4 -5 -1 -9 -10 -9 -9 0 -14 -4 -11
-8 3 -5 -10 -24 -29 -42 -19 -19 -35 -44 -35 -55 0 -13 -10 -27 -24 -35 -14
-7 -27 -19 -30 -27 -8 -19 11 -53 28 -53 7 0 25 -9 40 -21 l26 -20 10 27 c6
14 15 45 20 68 5 22 19 67 30 100 24 67 23 93 -3 88z"/>
<path d="M3611 4195 c3 -2 59 -9 125 -15 241 -21 279 -33 255 -79 -14 -24 -79
-71 -101 -71 -30 0 -136 -82 -195 -151 -34 -38 -80 -107 -103 -152 -44 -86
-105 -248 -96 -257 10 -9 45 44 85 128 100 211 227 350 399 437 62 31 117 35
151 11 13 -9 35 -16 49 -16 31 0 70 26 70 46 0 22 -65 45 -127 45 -37 0 -68 8
-101 25 -61 31 -192 54 -316 54 -55 0 -97 -2 -95 -5z"/>
<path d="M2044 4175 c-18 -14 -18 -14 4 -8 12 3 22 9 22 14 0 12 -3 11 -26 -6z"/>
<path d="M1892 4127 l-23 -13 26 -12 c35 -16 38 -15 32 7 -3 13 1 21 12 24 12
4 11 5 -4 5 -11 1 -30 -4 -43 -11z"/>
<path d="M1808 4098 c-26 -9 -40 -38 -18 -38 6 0 10 -7 10 -15 0 -31 26 -13
37 25 11 43 11 43 -29 28z"/>
<path d="M1690 4048 c-279 -130 -330 -159 -408 -239 -58 -59 -67 -82 -58 -135
9 -47 63 -98 167 -156 110 -61 130 -65 174 -39 69 40 138 23 190 -47 17 -23
39 -44 50 -47 11 -3 88 -9 171 -12 l150 -6 32 44 c18 23 32 48 32 55 0 6 -17
14 -38 18 -83 13 -201 119 -256 231 -24 48 -46 79 -59 84 -22 8 -100 6 -211
-5 -39 -4 -56 -3 -52 4 3 6 -2 13 -12 16 -10 4 -25 18 -32 32 -12 22 -12 27 0
35 12 8 12 12 3 16 -21 8 -15 43 10 64 22 18 73 27 63 10 -7 -10 50 -78 58
-70 4 3 -2 27 -11 52 -9 25 -14 49 -11 52 3 3 25 7 49 8 37 2 43 5 41 21 -2
10 1 15 6 12 6 -3 12 1 16 9 7 20 -10 18 -64 -7z"/>
<path d="M4447 3872 c-52 -57 33 -139 104 -102 28 15 23 32 -16 60 -19 14 -37
33 -40 43 -8 22 -28 22 -48 -1z"/>
<path d="M3874 3868 c-4 -6 5 -22 22 -38 70 -63 184 -201 223 -270 44 -75 48
-94 36 -162 -6 -33 -3 -41 23 -68 32 -31 68 -38 103 -20 28 16 24 47 -10 65
-20 10 -41 38 -66 87 -21 40 -50 92 -66 116 -16 24 -29 46 -29 50 0 4 -13 21
-28 38 -15 18 -36 43 -47 57 -42 52 -139 157 -146 157 -4 0 -11 -5 -15 -12z"/>
<path d="M3792 3568 c-30 -30 4 -98 49 -98 27 0 55 16 63 35 4 10 -5 20 -27
30 -18 8 -41 21 -53 30 -15 11 -23 12 -32 3z"/>
<path d="M4564 3505 c-7 -18 3 -35 21 -35 22 0 28 19 11 35 -18 19 -25 19 -32
0z"/>
<path d="M1179 3488 c-6 -22 -3 -84 7 -123 55 -214 116 -337 254 -508 85 -106
112 -127 164 -127 27 0 61 -10 90 -25 57 -30 106 -32 178 -6 29 10 100 34 157
51 86 28 105 37 115 59 6 14 20 39 31 55 11 16 15 31 10 33 -6 2 -41 24 -80
50 l-70 46 -191 -2 c-135 -1 -200 2 -221 11 -55 23 -127 79 -163 125 -19 25
-77 98 -127 162 -51 64 -102 135 -113 159 -11 23 -25 42 -30 42 -6 0 -10 -1
-11 -2z"/>
<path d="M1005 3419 c-68 -78 -186 -354 -206 -484 -16 -94 -8 -119 56 -180 56
-53 95 -73 220 -111 78 -23 390 -34 383 -13 -4 13 -51 41 -78 47 -36 8 -197
97 -260 143 -104 75 -107 83 -111 224 -3 126 4 235 22 321 6 27 10 58 8 69 -3
16 -8 13 -34 -16z"/>
<path d="M3408 3423 c-36 -39 -42 -66 -22 -108 36 -77 126 -101 177 -47 15 15
27 34 27 40 0 7 -20 21 -43 31 -44 19 -81 56 -92 92 -8 25 -17 24 -47 -8z"/>
<path d="M3845 3260 c-21 -34 39 -76 70 -50 22 18 19 24 -20 43 -42 20 -42 20
-50 7z"/>
<path d="M1723 3221 l-33 -27 30 -22 c36 -27 47 -28 55 -2 7 22 -3 80 -13 80
-4 -1 -22 -13 -39 -29z"/>
<path d="M4330 3151 c0 -26 27 -48 42 -33 9 9 7 17 -7 32 -23 25 -35 26 -35 1z"/>
<path d="M3391 3107 c-32 -32 19 -76 54 -47 22 18 19 28 -14 44 -21 11 -31 12
-40 3z"/>
<path d="M2079 3087 c-9 -7 -21 -22 -27 -34 -15 -28 -1 -37 78 -51 l55 -10 41
46 c23 26 40 50 37 55 -7 12 -167 7 -184 -6z"/>
<path d="M3285 2930 c-14 -16 -16 -28 -10 -67 16 -100 12 -123 -43 -231 -29
-56 -52 -107 -52 -112 0 -6 9 -10 19 -10 22 0 69 76 102 165 19 52 45 84 102
132 35 28 34 36 -8 56 -19 9 -45 32 -57 52 -27 41 -29 41 -53 15z"/>
<path d="M2118 2617 c-16 -6 -28 -16 -28 -22 0 -7 -11 -17 -25 -23 -26 -12
-65 -67 -65 -92 0 -8 9 -21 20 -28 17 -11 21 -10 27 5 20 57 34 82 67 121 31
38 42 55 34 51 -2 -1 -15 -6 -30 -12z"/>
<path d="M900 2509 c0 -25 14 -46 78 -111 42 -44 96 -91 118 -104 61 -36 221
-103 263 -110 20 -3 58 -12 84 -21 52 -16 356 -35 370 -23 10 9 -37 44 -73 55
-30 9 -116 54 -185 95 -73 45 -89 50 -211 70 -166 29 -318 87 -383 148 -43 41
-61 41 -61 1z"/>
<path d="M1755 2516 c-14 -14 -25 -32 -25 -40 0 -26 60 -105 141 -186 63 -64
89 -82 153 -109 62 -26 88 -31 134 -29 41 2 51 6 37 11 -116 46 -206 124 -231
200 -24 73 -46 101 -94 117 -22 7 -52 24 -65 38 l-24 24 -26 -26z"/>
<path d="M695 1756 c-3 -12 -4 -129 -3 -261 l3 -240 140 1 c152 1 184 9 224
60 40 51 23 148 -33 192 l-25 19 24 23 c35 33 48 80 36 128 -22 78 -63 96
-229 98 -127 1 -133 0 -137 -20z m290 -10 c43 -18 69 -67 61 -114 -12 -77 -64
-102 -210 -102 -129 0 -129 0 -122 133 2 50 5 93 5 95 1 1 53 2 116 2 77 0
127 -5 150 -14z m-1 -240 c54 -23 76 -53 76 -107 0 -55 -26 -94 -76 -115 -44
-18 -248 -19 -260 -1 -9 11 -9 33 -6 175 l2 62 115 0 c76 0 127 -5 149 -14z"/>
<path d="M1160 1735 c0 -19 5 -35 10 -35 6 0 10 16 10 35 0 19 -4 35 -10 35
-5 0 -10 -16 -10 -35z"/>
<path d="M1670 1515 c0 -163 4 -255 10 -255 6 0 10 92 10 255 0 163 -4 255
-10 255 -6 0 -10 -92 -10 -255z"/>
<path d="M3684 1746 c-78 -35 -98 -118 -43 -180 l31 -35 -41 -39 c-41 -39 -47
-57 -41 -122 7 -77 70 -120 177 -120 81 0 128 20 160 69 45 66 19 158 -54 199
-15 9 -14 13 15 40 26 24 32 38 32 71 0 54 -18 89 -54 108 -42 22 -143 27
-182 9z m161 -20 c89 -38 69 -163 -30 -186 -120 -28 -221 54 -174 141 28 53
130 76 204 45z m27 -232 c36 -19 62 -75 54 -118 -14 -73 -68 -110 -162 -109
-104 1 -154 42 -154 125 0 58 36 105 90 118 46 12 134 4 172 -16z"/>
<path d="M1350 1618 c-61 -31 -90 -88 -90 -178 0 -116 64 -190 164 -190 107 0
170 70 170 190 0 87 -33 148 -97 179 -55 27 -92 27 -147 -1z m176 -41 c76 -82
64 -227 -23 -291 -37 -27 -113 -27 -149 0 -54 40 -68 70 -72 147 -3 64 -1 76
24 113 39 60 68 75 133 71 47 -3 59 -9 87 -40z"/>
<path d="M1880 1629 c-13 -6 -33 -18 -43 -27 -17 -16 -20 -15 -38 8 -18 25
-19 24 -19 -162 0 -119 4 -188 10 -188 6 0 10 44 10 113 0 137 10 176 56 216
39 35 95 41 143 17 43 -23 51 -54 51 -206 0 -87 4 -140 10 -140 6 0 10 52 10
138 0 110 -3 144 -18 172 -28 58 -107 85 -172 59z"/>
<path d="M2254 1626 c-18 -8 -35 -19 -38 -25 -11 -17 -24 -13 -31 10 -4 13
-11 17 -16 12 -12 -12 -7 -369 5 -365 5 1 8 53 7 116 -3 123 12 180 57 219 27
25 94 33 132 17 51 -21 60 -52 60 -210 0 -87 4 -140 10 -140 6 0 10 54 10 143
0 125 -3 146 -20 175 -34 55 -111 76 -176 48z"/>
<path d="M2633 1625 c-70 -30 -103 -88 -103 -183 0 -116 66 -192 168 -192 107
0 166 69 165 192 0 87 -33 146 -96 177 -50 24 -89 26 -134 6z m153 -36 c41
-39 57 -79 58 -144 0 -173 -169 -244 -268 -112 -15 20 -21 47 -24 97 -4 57 -1
75 19 109 34 61 72 83 137 78 38 -3 59 -10 78 -28z"/>
<path d="M1160 1445 c0 -117 4 -185 10 -185 6 0 10 68 10 185 0 117 -4 185
-10 185 -6 0 -10 -68 -10 -185z"/>
</g>
</svg>
